# xmcd
#
# Track frame offsets: 
#        150
#        22988
#        42643
#        57300
#        71835
#        89803
#        110100
#        131210
#        149362
#        171056
#
# Disc length: 2484 seconds
#
# Revision: 0
# Processed by: cddbd v1.5.2PL0 Copyright (c) Steve Scherf et al.
# Submitted via: ExactAudioCopyFreeDBPlugin 1.0
#
DISCID=9e09b20a
DTITLE=Julia Hunter - Here Comes Trouble
DYEAR=1998
DGENRE=Americana
TTITLE0=Here Comes Trouble!
TTITLE1=This Dance
TTITLE2=What a Heart Will Do for Love
TTITLE3=Outbreak of Broken Hearts
TTITLE4=Grown Up Woman
TTITLE5=Keep Looking Over Your Shoulder
TTITLE6=Nobody Loves Me Like the Blues
TTITLE7=Giving Up the Ghost
TTITLE8=I'm the Only Girl
TTITLE9=Good Good Love
EXTD=
EXTT0=
EXTT1=
EXTT2=
EXTT3=
EXTT4=
EXTT5=
EXTT6=
EXTT7=
EXTT8=
EXTT9=
PLAYORDER=
